HIERARCHY
ROOT Hips
{
 OFFSET 0.000000 0.000000 0.000000
 CHANNELS 6 Xposition Yposition Zposition Yrotation Xrotation Zrotation
 JOINT Chest
 {
  OFFSET 0.000000 9.585900 0.002600
  CHANNELS 3 Yrotation Xrotation Zrotation
  JOINT Chest2
  {
   OFFSET 0.000000 9.601200 -0.005300
   CHANNELS 3 Yrotation Xrotation Zrotation
   JOINT Chest3
   {
    OFFSET 0.000000 9.561800 0.000000
    CHANNELS 3 Yrotation Xrotation Zrotation
    JOINT Chest4
    {
     OFFSET 0.000000 9.552100 0.000000
     CHANNELS 3 Yrotation Xrotation Zrotation
     JOINT Neck
     {
      OFFSET 0.000000 14.453000 0.000000
      CHANNELS 3 Yrotation Xrotation Zrotation
      JOINT Head
      {
       OFFSET 0.000000 8.936500 -0.011300
       CHANNELS 3 Yrotation Xrotation Zrotation
       End Site
       {
        OFFSET 0.000000 17.073600 -0.006000
       }
      }
     }
     JOINT RightCollar
     {
      OFFSET -2.921100 9.558500 0.000000
      CHANNELS 3 Yrotation Xrotation Zrotation
      JOINT RightShoulder
      {
       OFFSET -13.519700 0.000000 0.000000
       CHANNELS 3 Yrotation Xrotation Zrotation
       JOINT RightElbow
       {
        OFFSET 0.000000 -29.696600 0.000000
        CHANNELS 3 Yrotation Xrotation Zrotation
        JOINT RightWrist
        {
         OFFSET 0.000000 -24.004700 0.000000
         CHANNELS 3 Yrotation Xrotation Zrotation
         End Site
         {
          OFFSET 0.000000 -17.728500 0.000000
         }
        }
       }
      }
     }
     JOINT LeftCollar
     {
      OFFSET 2.921100 9.558500 0.000000
      CHANNELS 3 Yrotation Xrotation Zrotation
      JOINT LeftShoulder
      {
       OFFSET 13.519700 0.000000 0.000000
       CHANNELS 3 Yrotation Xrotation Zrotation
       JOINT LeftElbow
       {
        OFFSET 0.000000 -29.696600 0.000000
        CHANNELS 3 Yrotation Xrotation Zrotation
        JOINT LeftWrist
        {
         OFFSET 0.000000 -24.004700 0.000000
         CHANNELS 3 Yrotation Xrotation Zrotation
         End Site
         {
          OFFSET 0.000000 -17.728500 0.000000
         }
        }
       }
      }
     }
    }
   }
  }
 }
 JOINT RightHip
 {
  OFFSET -7.771700 -0.012900 -0.001300
  CHANNELS 3 Yrotation Xrotation Zrotation
  JOINT RightKnee
  {
   OFFSET 0.000000 -40.869800 0.001200
   CHANNELS 3 Yrotation Xrotation Zrotation
   JOINT RightAnkle
   {
    OFFSET 0.000000 -39.717900 0.002100
    CHANNELS 3 Yrotation Xrotation Zrotation
    JOINT RightToe
    {
     OFFSET 0.000000 -4.965400 11.033500
     CHANNELS 3 Yrotation Xrotation Zrotation
     End Site
     {
      OFFSET 0.000000 -1.423100 5.872300
     }
    }
   }
  }
 }
 JOINT LeftHip
 {
  OFFSET 7.771700 -0.012900 -0.001300
  CHANNELS 3 Yrotation Xrotation Zrotation
  JOINT LeftKnee
  {
   OFFSET 0.000000 -40.869800 0.001200
   CHANNELS 3 Yrotation Xrotation Zrotation
   JOINT LeftAnkle
   {
    OFFSET 0.000000 -39.717900 0.002100
    CHANNELS 3 Yrotation Xrotation Zrotation
    JOINT LeftToe
    {
     OFFSET 0.000000 -4.965400 11.033500
     CHANNELS 3 Yrotation Xrotation Zrotation
     End Site
     {
      OFFSET 0.000000 -1.423100 5.872300
     }
    }
   }
  }
 }
}
MOTION
Frames: 11
Frame Time: 0.008333
0.000000 85.388000 0.000000 0.000000 -5.767877 0.000000 0.000000 11.653817 0.000000 0.000000 -5.885947 0.000000 0.000000 -0.000000 0.000000 0.000000 -0.000000 0.000000 0.000000 12.528835 0.000000 0.000000 0.711642 0.000000 0.000000 -0.000000 0.000000 0.000000 0.000000 -90.000000 0.000000 -2.309062 0.000000 0.000000 2.309062 0.000000 0.000000 -0.000000 0.000000 0.000000 -0.000000 90.000000 0.000000 -2.309062 0.000000 0.000000 2.309062 0.000000 0.000000 8.520406 0.000000 0.000000 1.905762 0.000000 -0.000000 -4.658285 0.000000 0.000000 -0.000000 0.000000 0.000000 8.520406 0.000000 0.000000 1.905762 0.000000 -0.000000 -4.658285 0.000000 0.000000 -0.000000 0.000000
28.566396 49.893301 63.207066 171.839149 -31.729171 -6.628166 8.397523 23.346661 8.773996 1.102502 3.850461 0.992415 1.784952 6.164998 1.627358 6.570545 19.473119 6.071545 -3.894189 16.646370 1.266427 -7.653358 -4.703061 3.694130 0.135376 -1.709397 -5.162065 4.350575 -7.456265 -7.908791 -117.220802 -43.494557 131.432687 -13.254473 -10.395616 32.744456 -14.625238 0.611216 0.729280 3.047526 -19.526918 -0.589276 115.090013 -43.637462 -132.872430 43.398339 7.360784 -34.057213 -1.489692 -49.140218 11.354733 -106.368943 83.181228 -93.743761 -0.154313 -11.175756 -5.188348 -0.301008 0.962215 -0.148690 -7.469296 -52.929906 17.234406 -152.575974 80.042034 -159.979556 1.515226 -17.819964 8.476268 -0.333655 -0.745171 -0.209212
28.558098 49.897294 63.220665 171.809677 -31.735831 -6.624269 8.372658 23.407952 8.764328 1.104267 3.877764 0.996004 1.821296 6.137261 1.624392 6.539827 19.562211 6.080979 -3.863625 16.672223 1.271657 -7.597105 -4.656834 3.691615 0.163974 -1.645253 -5.103044 4.513604 -7.427380 -7.763645 -117.009289 -43.711754 130.999627 -13.182507 -10.335819 32.336802 -14.655042 0.787713 0.723661 2.987156 -19.432468 -0.589699 114.940580 -43.592492 -132.580472 43.266209 7.253784 -33.472317 -1.471023 -49.138444 11.371033 -106.122276 83.179314 -93.507879 -0.151497 -11.142918 -5.170930 -0.296481 0.967116 -0.151059 -7.466378 -52.921945 17.223094 -152.663019 80.069363 -160.057501 1.547602 -17.804164 8.475008 -0.341829 -0.744314 -0.216381
28.547990 49.901950 63.235608 171.796263 -31.743194 -6.627729 8.341509 23.451486 8.751703 1.104732 3.897141 0.997413 1.810437 6.188864 1.629084 6.568406 19.527938 6.064666 -3.864410 16.752120 1.292340 -7.540321 -4.612395 3.698525 0.153607 -1.529989 -5.032863 4.665814 -7.391426 -7.616440 -116.760486 -43.928269 130.563566 -13.108087 -10.253694 31.927881 -14.709131 1.009154 0.709832 2.932984 -19.325597 -0.575611 114.733455 -43.530995 -132.247854 43.077114 7.143409 -33.002274 -1.457062 -49.134560 11.384066 -105.876956 83.177375 -93.272111 -0.151184 -11.111867 -5.161325 -0.292013 0.968340 -0.143871 -7.476385 -52.913452 17.208218 -152.729642 80.100635 -160.112837 1.572903 -17.776596 8.475881 -0.341966 -0.739420 -0.206256
28.541860 49.904095 63.257948 171.740319 -31.716272 -6.645213 8.352728 23.449479 8.766626 1.131683 3.891986 1.003656 1.769490 6.257921 1.627796 6.550465 19.581548 6.053274 -3.796087 16.682254 1.284871 -7.507121 -4.524191 3.727422 0.192107 -1.500563 -4.986745 4.814375 -7.354853 -7.472722 -116.483072 -44.146237 130.124329 -13.028416 -10.158602 31.521352 -14.698741 1.134638 0.690934 2.876522 -19.217954 -0.550661 114.494559 -43.474694 -131.875394 42.844716 7.049002 -32.660588 -1.456104 -49.168480 11.456590 -105.414793 83.181968 -92.833446 -0.112015 -11.050633 -5.138752 -0.295238 0.976635 -0.145393 -7.512105 -52.943897 17.251996 -152.692601 80.125908 -160.051326 1.639472 -17.741673 8.471652 -0.342348 -0.741581 -0.226573
28.532366 49.912239 63.268937 171.701403 -31.761308 -6.645569 8.376168 23.504998 8.779111 1.089178 3.934437 0.993665 1.781808 6.272588 1.629099 6.517040 19.650827 6.040949 -3.756767 16.689734 1.304510 -7.444590 -4.551360 3.739015 0.228609 -1.477190 -4.940714 4.963984 -7.317581 -7.336655 -116.188682 -44.372842 129.680662 -12.951388 -10.067430 31.126393 -14.675208 1.250116 0.674564 2.814824 -19.110831 -0.525216 114.260261 -43.448618 -131.484982 42.594577 6.990373 -32.419590 -1.411096 -49.131898 11.478841 -105.181700 83.179111 -92.598725 -0.150421 -11.015911 -5.117853 -0.267385 0.974592 -0.142721 -7.499398 -52.895496 17.248479 -152.735946 80.149538 -160.080283 1.658928 -17.711325 8.455191 -0.339476 -0.751314 -0.214456
28.521945 49.918498 63.281302 171.690197 -31.785807 -6.657376 8.328769 23.569011 8.753475 1.088365 3.955617 0.992885 1.794898 6.286873 1.629094 6.500512 19.692445 6.024642 -3.739171 16.706241 1.329446 -7.384685 -4.597594 3.753462 0.239478 -1.440822 -4.889464 5.113676 -7.275580 -7.208445 -115.885731 -44.608860 129.236360 -12.882761 -9.994144 30.759925 -14.663531 1.376168 0.666148 2.750168 -18.997086 -0.503238 114.058458 -43.464974 -131.102867 42.343303 6.974257 -32.233997 -1.397833 -49.109757 11.499361 -104.962145 83.183117 -92.387696 -0.166913 -10.989341 -5.095355 -0.318262 0.976442 -0.143439 -7.508130 -52.868713 17.253051 -152.772675 80.172015 -160.106915 1.646727 -17.684521 8.446953 -0.327445 -0.750762 -0.195371
28.510193 49.924650 63.290709 171.673428 -31.817262 -6.654668 8.285498 23.638366 8.710123 1.127660 3.944995 1.009855 1.767412 6.330569 1.614247 6.485154 19.731983 6.005025 -3.711714 16.687856 1.349323 -7.337058 -4.636904 3.771765 0.240806 -1.419974 -4.836267 5.259925 -7.221417 -7.090180 -115.576522 -44.850390 128.791177 -12.819696 -9.949321 30.440319 -14.652745 1.487740 0.668862 2.693638 -18.866688 -0.481458 113.902735 -43.521750 -130.749952 42.098586 6.998018 -32.063453 -1.375106 -49.080331 11.503179 -104.790841 83.190491 -92.228803 -0.171438 -10.968707 -5.081564 -0.304602 0.983552 -0.139046 -7.495784 -52.834492 17.227809 -152.890505 80.198801 -160.214827 1.638640 -17.663314 8.456552 -0.318744 -0.750966 -0.197983
28.499482 49.932611 63.293966 171.649842 -31.877487 -6.646063 8.272469 23.725100 8.676194 1.114047 3.969673 1.001434 1.780421 6.341981 1.615572 6.471219 19.768168 5.983919 -3.670094 16.650536 1.372416 -7.313216 -4.668191 3.805044 0.234112 -1.417991 -4.782110 5.400272 -7.149742 -6.982002 -115.259423 -45.095784 128.342389 -12.760544 -9.934679 30.180204 -14.647427 1.584737 0.677939 2.654705 -18.713010 -0.454964 113.791586 -43.606253 -130.436722 41.865470 7.055020 -31.860965 -1.338340 -49.020862 11.500081 -104.679504 83.192677 -92.118361 -0.192338 -10.956413 -5.079797 -0.284212 0.982956 -0.129228 -7.470328 -52.769595 17.173145 -153.132521 80.229431 -160.438824 1.668608 -17.646365 8.467962 -0.336441 -0.760051 -0.225968
28.491054 49.936181 63.301314 171.647791 -31.891666 -6.661078 8.262143 23.751413 8.671538 1.079115 4.003379 0.974929 1.791697 6.352082 1.618308 6.457123 19.801400 5.962137 -3.645540 16.621722 1.392376 -7.280912 -4.716845 3.845918 0.222744 -1.433358 -4.730329 5.535027 -7.064365 -6.881016 -114.929464 -45.341965 127.889216 -12.706018 -9.936715 29.986107 -14.645851 1.666549 0.685062 2.631832 -18.536105 -0.419161 113.715236 -43.703015 -130.164732 41.644552 7.132325 -31.572684 -1.324990 -49.007255 11.516318 -104.512539 83.193931 -91.954268 -0.215120 -10.947072 -5.060246 -0.291125 0.990741 -0.127097 -7.491486 -52.755454 17.164349 -153.184868 80.244546 -160.473957 1.695663 -17.632280 8.450859 -0.334659 -0.756740 -0.215459
28.486963 49.939669 63.305885 171.650481 -31.910541 -6.695607 8.256605 23.780531 8.685799 1.056892 4.023217 0.955785 1.801318 6.359270 1.623020 6.428215 19.843012 5.932215 -3.638764 16.601646 1.409180 -7.232174 -4.792129 3.873749 0.207510 -1.463009 -4.681149 5.668263 -6.967250 -6.786041 -114.586554 -45.583014 127.430299 -12.652548 -9.938574 29.849716 -14.648553 1.736358 0.686898 2.624311 -18.338798 -0.375699 113.660832 -43.801073 -129.934238 41.433803 7.212786 -31.174427 -1.296683 -48.991017 11.548293 -104.331248 83.172422 -91.755568 -0.257198 -10.946101 -5.043359 -0.272198 1.002672 -0.113662 -7.544000 -52.736398 17.187078 -153.167115 80.244690 -160.435633 1.736823 -17.623375 8.427865 -0.323841 -0.754060 -0.205471
